# xmcd CD database file
#
# Track frame offsets:
#	150
#	11732
#	24262
#	38184
#	51502
#	65660
#	79465
#	93068
#	105691
#	120994
#	135590
#	150545
#	162904
#	175332
#	188063
#	201026
#	216048
#	229829
#	242888
#	254569
#	266392
#	279546
#	291161
#	303795
#	317168
#
# Disc length: 4401 seconds
#
# Revision: 0
# Processed by: cddbd v1.5.2PL0 Copyright (c) Steve Scherf et al.
# Submitted via: CDex 1.70beta2
#
DISCID=5f112f19
DTITLE=Various Artist - California Jazz
DYEAR=1999
DGENRE=Jazz
TTITLE0=Everything Is Hotsy Totsy Now - Eddie Frazier and His Plantation Orchestra
TTITLE1=Milenburg Joys - Carlyle Stevenson's El Patio Orchestra
TTITLE2=Shake That Thing - Abe Lyman
TTITLE3=Rosy Cheeks - Henry Halstead and His Orchestra
TTITLE4=Weary Stomp - Curtis Mosby and His Dixieland Blue Blowers
TTITLE5=My Gal Sal - Tom Gerunovitch and His Garden Roof Orchestra
TTITLE6=Quality Shout - Paul Howard's Quality Serenaders
TTITLE7=California Swing - Paul Howard's Quality Serenaders
TTITLE8=You're Luck to Me - Louis Armstrong and His New Sebastian Cotton Club Orchestra
TTITLE9=Sweethearts On Parade - Louis Armstrong and His New Sebastian Cotton Club Orchestra
TTITLE10=Cho-King - The Dixie Serenaders
TTITLE11=Kingfish Blues - Candy and Coco
TTITLE12=China Boy - Candy and Coco
TTITLE13=Loveless Love - Bobby Gordon and His Rhythm
TTITLE14=Madhouse - Benny Goodman and His Orchestra
TTITLE15=I Surrender Dear - Lionel Hampton
TTITLE16=Open House - Lionel Hampton
TTITLE17=Tailgate Ramble - Wingy Manone's Dixieland Band
TTITLE18=Lulu's Mood - Zutty Singletone's Trio
TTITLE19=South - Kid Ory's Creole Jazz Band
TTITLE20=Blues for Jimmie - Kid Ory's Creole Jazz Band
TTITLE21=High Society - Nappy Lamare's Levee Loungers
TTITLE22=Ding Dong Oreeney - Slim Gaillard Quartet
TTITLE23=Travelin' Blues - Slim Gaillard and His Boogiereeneers
TTITLE24=South - Lu Watters
EXTD=YEAR: 1999
EXTT0=
EXTT1=
EXTT2=
EXTT3=
EXTT4=
EXTT5=
EXTT6=
EXTT7=
EXTT8=
EXTT9=
EXTT10=
EXTT11=
EXTT12=
EXTT13=
EXTT14=
EXTT15=
EXTT16=
EXTT17=
EXTT18=
EXTT19=
EXTT20=
EXTT21=
EXTT22=
EXTT23=
EXTT24=
PLAYORDER=
